# xmcd CD database file
#
# Track frame offsets:
#	150
#	13347
#	24742
#	36332
#	49292
#	60977
#	72535
#	84252
#	94507
#	105582
#	117217
#	129460
#	141097
#	153295
#	167552
#	180087
#	190390
#	205247
#	217575
#	229220
#	243200
#	257247
#	268890
#	281432
#	308275
#
# Disc length: 4438 seconds
#
# Revision: 0
# Processed by: cddbd v1.5.1PL0 Copyright (c) Steve Scherf et al.
# Submitted via: CDex 1.51
#
DISCID=52115419
DTITLE=Muddy Waters - Screamin' and Cryin' - Disc 1
DYEAR=2004
DGENRE=Blues
TTITLE0=Jitterburg Blues
TTITLE1=Little Anna Mae
TTITLE2=Gypsy Woman
TTITLE3=Down South Blues
TTITLE4=Kind Hearted Woman
TTITLE5=Sittin' Here and Drinkin'
TTITLE6=You're Gonna Miss Me
TTITLE7=Standing Here Trembling
TTITLE8=Muddy Jumps One
TTITLE9=Hard Days
TTITLE10=Good Looking Woman
TTITLE11=Mean Disposition
TTITLE12=I Can't Be Satisfied
TTITLE13=I Feel Like Going Home
TTITLE14=Train Fare Home Blues
TTITLE15=Mean Red Spider
TTITLE16=Streamline Woman
TTITLE17=Canary Bird
TTITLE18=Burying Ground
TTITLE19=Screamin' And Cryin'
TTITLE20=Where's My Woman Been?
TTITLE21=Last Time I Foll Around With You
TTITLE22=Little Geneva
TTITLE23=Rollin' And Tumblin'
TTITLE24=Rolling And Tumblin' #2
EXTD=YEAR: 2004
EXTT0=
EXTT1=
EXTT2=
EXTT3=
EXTT4=
EXTT5=
EXTT6=
EXTT7=
EXTT8=
EXTT9=
EXTT10=
EXTT11=
EXTT12=
EXTT13=
EXTT14=
EXTT15=
EXTT16=
EXTT17=
EXTT18=
EXTT19=
EXTT20=
EXTT21=
EXTT22=
EXTT23=
EXTT24=
PLAYORDER=
